<?xml version="1.0" standalone="no"?>
<!DOCTYPE svg PUBLIC "-//W3C//DTD SVG 20010904//EN"
 "http://www.w3.org/TR/2001/REC-SVG-20010904/DTD/svg10.dtd">
<svg version="1.0" xmlns="http://www.w3.org/2000/svg"
 width="512.000000pt" height="512.000000pt" viewBox="0 0 512.000000 512.000000"
 preserveAspectRatio="xMidYMid meet">
<metadata>
Created by potrace 1.11, written by Peter Selinger 2001-2013
</metadata>
<g transform="translate(0.000000,512.000000) scale(0.100000,-0.100000)"
fill="#000000" stroke="none">
<path d="M437 3773 c-3 -5 -5 -567 -5 -1250 l1 -1243 166 0 167 0 0 438 0 437
55 52 c31 29 65 61 76 70 11 10 77 72 147 138 70 66 130 121 134 122 6 2 524
-715 767 -1061 28 -40 70 -100 94 -134 l45 -62 209 0 c164 0 207 3 201 13 -8
12 -834 1139 -1000 1364 l-83 111 28 29 c23 23 358 346 481 463 20 19 122 117
226 216 104 100 218 209 254 243 l65 61 -215 0 -215 0 -177 -173 c-252 -246
-1036 -1017 -1064 -1047 l-24 -25 -1 25 c-1 14 -2 293 -3 620 l-1 595 -162 3
c-89 1 -164 -1 -166 -5z"/>
<path d="M2763 2530 l0 -1251 501 2 c539 2 626 8 791 54 334 95 566 312 674
630 24 70 48 164 57 220 3 22 8 43 9 46 18 28 27 462 13 584 -32 278 -131 503
-290 658 -78 76 -123 108 -218 159 -104 55 -226 98 -324 112 -21 4 -48 8 -60
11 -12 3 -34 8 -51 11 -16 4 -271 9 -566 11 l-536 5 0 -1252z m1047 960 c275
-36 462 -156 568 -366 19 -38 59 -147 68 -186 11 -47 13 -60 20 -105 3 -26 9
-57 11 -68 3 -11 6 -95 8 -186 4 -257 -29 -435 -110 -601 -101 -204 -255 -328
-486 -390 -80 -21 -102 -22 -439 -23 l-355 0 0 968 0 968 330 -2 c182 -1 355
-5 385 -9z"/>
</g>
</svg>
